<?xml version="1.0" encoding="utf-8"?>
<!-- Generator: Adobe Illustrator 19.0.0, SVG Export Plug-In . SVG Version: 6.00 Build 0)  -->
<svg version="1.1" id="Слой_1" xmlns="http://www.w3.org/2000/svg" xmlns:xlink="http://www.w3.org/1999/xlink" x="0px" y="0px"
	 viewBox="0 0 85 42.5" style="enable-background:new 0 0 85 42.5;" xml:space="preserve">
<style type="text/css">
	.st0{fill:#FFFFFF;}
</style>
<g id="XMLID_2_">
	<path id="XMLID_3_" class="st0" d="M0,26.1c0-1.6,0.4-2.9,1.2-3.8C2,21.4,3.1,21,4.6,21c0.8,0,1.4,0.1,2,0.4s1,0.6,1.4,1
		c0.4,0.4,0.7,1,0.8,1.6c0.2,0.6,0.3,1.3,0.3,2.1c0,1.6-0.4,2.9-1.2,3.8c-0.8,0.9-1.9,1.3-3.4,1.3c-0.8,0-1.4-0.1-2-0.4
		c-0.6-0.2-1-0.6-1.4-1c-0.4-0.4-0.7-1-0.9-1.6C0.1,27.5,0,26.8,0,26.1z M2.6,26.1c0,0.4,0,0.8,0.1,1.2c0.1,0.4,0.2,0.7,0.3,0.9
		c0.2,0.3,0.4,0.5,0.6,0.6C3.9,29,4.2,29,4.6,29c0.7,0,1.1-0.2,1.5-0.7c0.3-0.5,0.5-1.2,0.5-2.3c0-0.9-0.1-1.6-0.4-2.2
		s-0.8-0.8-1.5-0.8c-0.6,0-1.1,0.2-1.4,0.7C2.8,24.2,2.6,25,2.6,26.1z"/>
	<path id="XMLID_7_" class="st0" d="M16.1,23.4h-1.9c-0.1,0.9-0.2,1.8-0.3,2.7c-0.1,0.9-0.3,1.7-0.5,2.4c-0.2,0.7-0.5,1.3-0.9,1.7
		C12.1,30.8,11.6,31,11,31c-0.7,0-1.3-0.1-1.6-0.3l0.3-2.1c0.2,0.1,0.4,0.1,0.6,0.1c0.3,0,0.5-0.1,0.7-0.3c0.2-0.2,0.4-0.6,0.5-1.2
		s0.2-1.3,0.3-2.3c0.1-1,0.1-2.2,0.2-3.7h6.6v9.7h-2.5V23.4z"/>
	<path id="XMLID_9_" class="st0" d="M26.6,26.5l0.1-1.4h-0.1l-0.8,1.4l-3.4,4.4h-1.6v-9.7h2.5v4.6l-0.1,1.3h0.1l0.8-1.4l3.5-4.5h1.6
		v9.7h-2.5V26.5z"/>
	<path id="XMLID_11_" class="st0" d="M39.6,26.5l0.2-2h-0.1l-0.8,1.7l-1.8,3h-0.9l-2-3l-0.7-1.7h-0.1l0.3,2v4.4h-2.2v-9.7h2.6
		l2.2,3.6l0.5,1.2h0.1l0.6-1.3l2-3.6H42v9.7h-2.4V26.5z"/>
	<path id="XMLID_14_" class="st0" d="M49.8,23.4h-3.1v7.4h-2.5v-9.7h8.1v9.7h-2.5V23.4z"/>
	<path id="XMLID_16_" class="st0" d="M59.7,23.4h-1.9c-0.1,0.9-0.2,1.8-0.3,2.7c-0.1,0.9-0.3,1.7-0.5,2.4c-0.2,0.7-0.5,1.3-0.9,1.7
		c-0.4,0.4-0.9,0.7-1.5,0.7c-0.7,0-1.3-0.1-1.6-0.3l0.3-2.1c0.2,0.1,0.4,0.1,0.6,0.1c0.3,0,0.5-0.1,0.7-0.3c0.2-0.2,0.4-0.6,0.5-1.2
		c0.1-0.6,0.2-1.3,0.3-2.3c0.1-1,0.1-2.2,0.2-3.7h6.6v9.7h-2.5V23.4z"/>
	<path id="XMLID_18_" class="st0" d="M64.4,21.8c0.5-0.2,1.1-0.4,1.8-0.6c0.7-0.1,1.4-0.2,2.2-0.2c0.7,0,1.2,0.1,1.7,0.2
		c0.5,0.2,0.8,0.4,1.1,0.7c0.3,0.3,0.5,0.7,0.6,1.1c0.1,0.4,0.2,0.9,0.2,1.4c0,0.6,0,1.1-0.1,1.7c0,0.6-0.1,1.1-0.1,1.7
		c0,0.6,0,1.1,0,1.6c0,0.5,0.1,1,0.3,1.5h-2l-0.4-1.3h-0.1c-0.3,0.4-0.6,0.7-1.1,1c-0.5,0.3-1,0.4-1.8,0.4c-0.5,0-0.9-0.1-1.2-0.2
		c-0.4-0.1-0.7-0.3-0.9-0.6c-0.3-0.2-0.5-0.5-0.6-0.9c-0.1-0.3-0.2-0.7-0.2-1.1c0-0.6,0.1-1.1,0.4-1.5c0.3-0.4,0.6-0.7,1.1-1
		c0.5-0.3,1.1-0.4,1.8-0.5c0.7-0.1,1.5-0.1,2.3-0.1c0.1-0.7,0-1.2-0.2-1.6c-0.2-0.3-0.6-0.5-1.3-0.5c-0.5,0-1,0.1-1.6,0.2
		c-0.6,0.1-1,0.2-1.4,0.4L64.4,21.8z M67.5,29c0.5,0,0.9-0.1,1.2-0.3c0.3-0.2,0.5-0.5,0.7-0.7v-1.3c-0.4,0-0.8,0-1.1,0
		c-0.4,0-0.7,0.1-1,0.2c-0.3,0.1-0.5,0.2-0.7,0.4c-0.2,0.2-0.3,0.4-0.3,0.6c0,0.4,0.1,0.6,0.3,0.8C66.9,28.9,67.2,29,67.5,29z"/>
	<path id="XMLID_21_" class="st0" d="M79.7,27.1h-3.1v3.8H74v-9.7h2.5v3.6h3.1v-3.6h2.5v9.7h-2.5V27.1z"/>
</g>
<g id="XMLID_13_">
	<path id="XMLID_23_" class="st0" d="M69.7,18.8L64.8,13c-0.2-0.2-0.4-0.3-0.6-0.4c-5.4-1.3-29.9-7.3-31.5-7.6
		c1,1.4,3.3,4.5,5.7,8.1c1.5,2.2,3.3,5.4,3.6,5.6l-1.8,0c-0.2-0.3-1.3-1.9-3.1-4.7c-2.2-3.3-5.3-8.1-5.7-8.6l-0.2-0.6
		c0,0,0.1-1.2,0.8-1c8.9,1.7-0.3,0,32.6,7.3c0.6,0.1,1.1,0.4,1.4,0.9l5.8,6.8H69.7z"/>
	<path id="XMLID_24_" class="st0" d="M83.6,37.9l-28.7-0.1c-0.9,0-1.6-0.3-2.2-1l-2.9-4.3h1.8l2.4,3.4c0.2,0.3,0.5,0.4,0.8,0.3
		l28.3,0.1c-0.3-0.5-1.8-2.3-2.5-3.1l2.1,0.1c1.1,1.1,1.7,1.8,2.1,2.5c0.2,0.4,0.3,1.1,0.2,1.4C84.8,37.6,84.1,37.9,83.6,37.9z"/>
</g>
</svg>
