<?xml version="1.0" encoding="utf-8"?>
<!-- Generator: Adobe Illustrator 19.0.0, SVG Export Plug-In . SVG Version: 6.00 Build 0)  -->
<svg version="1.1" id="Слой_1" xmlns="http://www.w3.org/2000/svg" xmlns:xlink="http://www.w3.org/1999/xlink" x="0px" y="0px"
	 viewBox="0 0 82.2 59.5" style="enable-background:new 0 0 82.2 59.5;" xml:space="preserve">
<g id="XMLID_1_">
	<path id="XMLID_2_" d="M2.7,31.7c0-1.5,0.4-2.6,1.1-3.5C4.5,27.4,5.6,27,6.9,27c0.7,0,1.3,0.1,1.8,0.3c0.5,0.2,0.9,0.5,1.3,0.9
		c0.3,0.4,0.6,0.9,0.8,1.5C11,30.4,11,31,11,31.7c0,1.5-0.4,2.7-1.1,3.5c-0.7,0.8-1.7,1.2-3.1,1.2c-0.7,0-1.3-0.1-1.8-0.3
		c-0.5-0.2-1-0.5-1.3-0.9c-0.3-0.4-0.6-0.9-0.8-1.5S2.7,32.4,2.7,31.7z M5.1,31.7c0,0.4,0,0.7,0.1,1.1c0.1,0.3,0.2,0.6,0.3,0.9
		s0.3,0.4,0.6,0.6s0.5,0.2,0.8,0.2c0.6,0,1-0.2,1.3-0.7c0.3-0.4,0.4-1.1,0.4-2.1c0-0.8-0.1-1.5-0.4-2C8,29.2,7.5,29,6.9,29
		c-0.6,0-1,0.2-1.3,0.6C5.2,30,5.1,30.7,5.1,31.7z"/>
	<path id="XMLID_5_" d="M17.4,29.3h-1.8c-0.1,0.8-0.2,1.7-0.2,2.5c-0.1,0.8-0.2,1.6-0.5,2.2c-0.2,0.7-0.5,1.2-0.8,1.6
		s-0.8,0.6-1.4,0.6c-0.7,0-1.2-0.1-1.5-0.3l0.3-1.9c0.2,0.1,0.4,0.1,0.5,0.1c0.2,0,0.4-0.1,0.6-0.3c0.2-0.2,0.3-0.6,0.5-1.1
		c0.1-0.5,0.2-1.2,0.3-2.1c0.1-0.9,0.1-2,0.2-3.4h6.1v8.8h-2.3V29.3z"/>
	<path id="XMLID_7_" d="M27.1,32.1l0.1-1.3h-0.1l-0.8,1.3l-3.1,4h-1.5v-8.8H24v4.2l-0.1,1.2H24l0.7-1.3l3.2-4.2h1.5v8.8h-2.3V32.1z"
		/>
	<path id="XMLID_9_" d="M39,32.1l0.1-1.8H39l-0.7,1.5l-1.7,2.7h-0.8L34,31.8l-0.7-1.5h-0.1l0.2,1.8v4.1h-2.1v-8.8h2.4l2,3.3l0.5,1.1
		h0.1l0.5-1.1l1.9-3.3h2.4v8.8H39V32.1z"/>
	<path id="XMLID_11_" d="M48.3,29.3h-2.8v6.8h-2.3v-8.8h7.4v8.8h-2.3V29.3z"/>
	<path id="XMLID_14_" d="M57.4,29.3h-1.8c-0.1,0.8-0.2,1.7-0.2,2.5s-0.2,1.6-0.5,2.2c-0.2,0.7-0.5,1.2-0.8,1.6
		c-0.4,0.4-0.8,0.6-1.4,0.6c-0.7,0-1.2-0.1-1.5-0.3l0.3-1.9c0.2,0.1,0.4,0.1,0.5,0.1c0.2,0,0.4-0.1,0.6-0.3c0.2-0.2,0.3-0.6,0.5-1.1
		c0.1-0.5,0.2-1.2,0.3-2.1c0.1-0.9,0.1-2,0.2-3.4h6.1v8.8h-2.3V29.3z"/>
	<path id="XMLID_26_" d="M61.6,27.8c0.5-0.2,1-0.4,1.7-0.5c0.6-0.1,1.3-0.2,2-0.2c0.6,0,1.1,0.1,1.5,0.2c0.4,0.1,0.7,0.4,1,0.6
		c0.2,0.3,0.4,0.6,0.5,1c0.1,0.4,0.2,0.8,0.2,1.3c0,0.5,0,1-0.1,1.6c0,0.5-0.1,1-0.1,1.5c0,0.5,0,1,0,1.5c0,0.5,0.1,0.9,0.3,1.4
		h-1.9l-0.4-1.2h-0.1c-0.2,0.4-0.6,0.7-1,0.9c-0.4,0.3-1,0.4-1.6,0.4c-0.4,0-0.8-0.1-1.1-0.2s-0.6-0.3-0.8-0.5
		c-0.2-0.2-0.4-0.5-0.5-0.8s-0.2-0.7-0.2-1.1c0-0.5,0.1-1,0.4-1.4c0.2-0.4,0.6-0.7,1-0.9c0.5-0.2,1-0.4,1.6-0.5
		c0.6-0.1,1.3-0.1,2.1-0.1c0.1-0.7,0-1.1-0.1-1.4c-0.2-0.3-0.6-0.4-1.2-0.4c-0.5,0-0.9,0-1.5,0.1c-0.5,0.1-0.9,0.2-1.3,0.4
		L61.6,27.8z M64.6,34.4c0.5,0,0.8-0.1,1.1-0.3c0.3-0.2,0.5-0.4,0.6-0.7v-1.1c-0.4,0-0.7,0-1.1,0c-0.3,0-0.6,0.1-0.9,0.2
		c-0.3,0.1-0.5,0.2-0.6,0.4s-0.2,0.3-0.2,0.6c0,0.3,0.1,0.6,0.3,0.8S64.2,34.4,64.6,34.4z"/>
	<path id="XMLID_29_" d="M75.7,32.6h-2.9v3.5h-2.3v-8.8h2.3v3.3h2.9v-3.3H78v8.8h-2.3V32.6z"/>
</g>
<rect id="XMLID_24_" x="61.6" y="18.5" transform="matrix(0.8698 0.4934 -0.4934 0.8698 17.4089 -28.0388)" width="0.5" height="0.8"/>
<rect id="XMLID_23_" x="30.3" y="15" transform="matrix(0.9757 0.2191 -0.2191 0.9757 4.519 -9.7608)" width="31.9" height="1"/>
<rect id="XMLID_22_" x="60.5" y="21.4" transform="matrix(0.6687 0.7435 -0.7435 0.6687 37.6024 -40.643)" width="7.8" height="1"/>
<rect id="XMLID_21_" x="27.3" y="18" transform="matrix(0.5658 0.8245 -0.8245 0.5658 30.5934 -21.1474)" width="16.1" height="1"/>
<rect id="XMLID_20_" x="47.4" y="39.9" transform="matrix(0.624 0.7814 -0.7814 0.624 50.4635 -24.15)" width="5.8" height="1"/>
<rect id="XMLID_19_" x="77.1" y="39.1" transform="matrix(0.589 0.8082 -0.8082 0.589 64.4432 -47.5477)" width="3.6" height="1"/>
<rect id="XMLID_18_" x="65.5" y="27.7" transform="matrix(5.276397e-002 0.9986 -0.9986 5.276397e-002 104.2295 -26.2864)" width="1" height="28.2"/>
<rect id="XMLID_17_" x="51.7" y="42.3" transform="matrix(0.8716 0.4902 -0.4902 0.8716 27.5902 -20.0056)" width="0.5" height="0.8"/>
<rect id="XMLID_15_" x="79.4" y="40.3" transform="matrix(0.908 0.4189 -0.4189 0.908 24.4951 -29.6668)" width="0.8" height="1.2"/>
<rect id="XMLID_31_" x="30.6" y="11.6" transform="matrix(0.8405 0.5418 -0.5418 0.8405 11.5104 -14.9082)" width="1" height="0.9"/>
</svg>
